<svg width="81" height="44" viewBox="0 0 81 44" fill="none" xmlns="http://www.w3.org/2000/svg">
<path d="M40.5001 26C46.299 26 51 21.2989 51 15.5C51 9.70101 46.299 5 40.5001 5C34.7011 5 30 9.70101 30 15.5C30 21.2989 34.7011 26 40.5001 26Z" fill="#001029"/>
<path d="M64.5001 26C70.299 26 75 21.0751 75 15C75 8.92486 70.299 4 64.5001 4C58.7011 4 54 8.92486 54 15C54 21.0751 58.7011 26 64.5001 26Z" fill="#001029"/>
<path d="M27 5H6V26H27V5Z" fill="#001029"/>
<path d="M33.473 35.161C33.473 34.413 33.6417 33.742 33.979 33.148C34.3163 32.5467 34.7747 32.0773 35.354 31.74C35.9407 31.4027 36.5897 31.234 37.301 31.234C38.137 31.234 38.8667 31.4357 39.49 31.839C40.1133 32.2423 40.568 32.8143 40.854 33.555H39.655C39.4423 33.093 39.1343 32.7373 38.731 32.488C38.335 32.2387 37.8583 32.114 37.301 32.114C36.7657 32.114 36.2853 32.2387 35.86 32.488C35.4347 32.7373 35.101 33.093 34.859 33.555C34.617 34.0097 34.496 34.545 34.496 35.161C34.496 35.7697 34.617 36.305 34.859 36.767C35.101 37.2217 35.4347 37.5737 35.86 37.823C36.2853 38.0723 36.7657 38.197 37.301 38.197C37.8583 38.197 38.335 38.076 38.731 37.834C39.1343 37.5847 39.4423 37.229 39.655 36.767H40.854C40.568 37.5003 40.1133 38.0687 39.49 38.472C38.8667 38.868 38.137 39.066 37.301 39.066C36.5897 39.066 35.9407 38.901 35.354 38.571C34.7747 38.2337 34.3163 37.768 33.979 37.174C33.6417 36.58 33.473 35.909 33.473 35.161ZM44.9731 39.099C44.4084 39.099 43.8951 38.9707 43.4331 38.714C42.9784 38.4573 42.6191 38.0943 42.3551 37.625C42.0984 37.1483 41.9701 36.5983 41.9701 35.975C41.9701 35.359 42.1021 34.8163 42.3661 34.347C42.6374 33.8703 43.0041 33.5073 43.4661 33.258C43.9281 33.0013 44.4451 32.873 45.0171 32.873C45.5891 32.873 46.1061 33.0013 46.5681 33.258C47.0301 33.5073 47.3931 33.8667 47.6571 34.336C47.9284 34.8053 48.0641 35.3517 48.0641 35.975C48.0641 36.5983 47.9247 37.1483 47.6461 37.625C47.3747 38.0943 47.0044 38.4573 46.5351 38.714C46.0657 38.9707 45.5451 39.099 44.9731 39.099ZM44.9731 38.219C45.3324 38.219 45.6697 38.1347 45.9851 37.966C46.3004 37.7973 46.5534 37.5443 46.7441 37.207C46.9421 36.8697 47.0411 36.459 47.0411 35.975C47.0411 35.491 46.9457 35.0803 46.7551 34.743C46.5644 34.4057 46.3151 34.1563 46.0071 33.995C45.6991 33.8263 45.3654 33.742 45.0061 33.742C44.6394 33.742 44.3021 33.8263 43.9941 33.995C43.6934 34.1563 43.4514 34.4057 43.2681 34.743C43.0847 35.0803 42.9931 35.491 42.9931 35.975C42.9931 36.4663 43.0811 36.8807 43.2571 37.218C43.4404 37.5553 43.6824 37.8083 43.9831 37.977C44.2837 38.1383 44.6137 38.219 44.9731 38.219ZM52.3172 32.862C53.0505 32.862 53.6445 33.0857 54.0992 33.533C54.5539 33.973 54.7812 34.611 54.7812 35.447V39H53.7912V35.59C53.7912 34.9887 53.6409 34.5303 53.3402 34.215C53.0395 33.8923 52.6289 33.731 52.1082 33.731C51.5802 33.731 51.1585 33.896 50.8432 34.226C50.5352 34.556 50.3812 35.0363 50.3812 35.667V39H49.3802V32.972H50.3812V33.83C50.5792 33.522 50.8469 33.2837 51.1842 33.115C51.5289 32.9463 51.9065 32.862 52.3172 32.862ZM58.5503 39.099C58.0883 39.099 57.674 39.022 57.3073 38.868C56.9407 38.7067 56.651 38.4867 56.4383 38.208C56.2257 37.922 56.1083 37.5957 56.0863 37.229H57.1203C57.1497 37.5297 57.289 37.7753 57.5383 37.966C57.795 38.1567 58.1287 38.252 58.5393 38.252C58.9207 38.252 59.2213 38.1677 59.4413 37.999C59.6613 37.8303 59.7713 37.6177 59.7713 37.361C59.7713 37.097 59.654 36.9027 59.4193 36.778C59.1847 36.646 58.8217 36.5177 58.3303 36.393C57.883 36.2757 57.5163 36.1583 57.2303 36.041C56.9517 35.9163 56.7097 35.7367 56.5043 35.502C56.3063 35.26 56.2073 34.9447 56.2073 34.556C56.2073 34.248 56.299 33.9657 56.4823 33.709C56.6657 33.4523 56.926 33.2507 57.2633 33.104C57.6007 32.95 57.9857 32.873 58.4183 32.873C59.0857 32.873 59.6247 33.0417 60.0353 33.379C60.446 33.7163 60.666 34.1783 60.6953 34.765H59.6943C59.6723 34.4497 59.544 34.1967 59.3093 34.006C59.082 33.8153 58.774 33.72 58.3853 33.72C58.026 33.72 57.74 33.797 57.5273 33.951C57.3147 34.105 57.2083 34.3067 57.2083 34.556C57.2083 34.754 57.2707 34.919 57.3953 35.051C57.5273 35.1757 57.6887 35.2783 57.8793 35.359C58.0773 35.4323 58.3487 35.5167 58.6933 35.612C59.126 35.7293 59.478 35.8467 59.7493 35.964C60.0207 36.074 60.2517 36.2427 60.4423 36.47C60.6403 36.6973 60.743 36.9943 60.7503 37.361C60.7503 37.691 60.6587 37.988 60.4753 38.252C60.292 38.516 60.0317 38.725 59.6943 38.879C59.3643 39.0257 58.983 39.099 58.5503 39.099ZM67.5094 32.972V39H66.5084V38.109C66.3177 38.417 66.0501 38.659 65.7054 38.835C65.3681 39.0037 64.9941 39.088 64.5834 39.088C64.1141 39.088 63.6924 38.9927 63.3184 38.802C62.9444 38.604 62.6474 38.3107 62.4274 37.922C62.2147 37.5333 62.1084 37.0603 62.1084 36.503V32.972H63.0984V36.371C63.0984 36.965 63.2487 37.4233 63.5494 37.746C63.8501 38.0613 64.2607 38.219 64.7814 38.219C65.3167 38.219 65.7384 38.054 66.0464 37.724C66.3544 37.394 66.5084 36.9137 66.5084 36.283V32.972H67.5094ZM70.2005 30.86V39H69.1995V30.86H70.2005ZM73.1276 33.797V37.35C73.1276 37.6433 73.1899 37.8523 73.3146 37.977C73.4392 38.0943 73.6556 38.153 73.9636 38.153H74.7006V39H73.7986C73.2412 39 72.8232 38.8717 72.5446 38.615C72.2659 38.3583 72.1266 37.9367 72.1266 37.35V33.797H71.3456V32.972H72.1266V31.454H73.1276V32.972H74.7006V33.797H73.1276Z" fill="#001029"/>
<path d="M8.99 39V31.733H6.312V30.628H13.072V31.733H10.407V39H8.99ZM16.0962 39.13C15.0216 39.13 14.1896 38.8657 13.6002 38.337C13.0109 37.8083 12.7162 36.998 12.7162 35.906C12.7162 34.918 12.9676 34.138 13.4702 33.566C13.9729 32.994 14.7356 32.708 15.7582 32.708C16.6942 32.708 17.3962 32.955 17.8642 33.449C18.3409 33.9343 18.5792 34.5627 18.5792 35.334V36.478H14.0682C14.1376 37.076 14.3542 37.4877 14.7182 37.713C15.0822 37.9383 15.6369 38.051 16.3822 38.051C16.6942 38.051 17.0149 38.0207 17.3442 37.96C17.6736 37.8993 17.9596 37.8213 18.2022 37.726V38.766C17.9249 38.8873 17.6042 38.9783 17.2402 39.039C16.8849 39.0997 16.5036 39.13 16.0962 39.13ZM14.0682 35.555H17.3312V35.126C17.3312 34.7013 17.2142 34.372 16.9802 34.138C16.7462 33.8953 16.3519 33.774 15.7972 33.774C15.1386 33.774 14.6836 33.917 14.4322 34.203C14.1896 34.489 14.0682 34.9397 14.0682 35.555ZM22.9876 39.13C21.9043 39.13 21.0853 38.857 20.5306 38.311C19.976 37.7563 19.6986 36.959 19.6986 35.919C19.6986 34.8357 20.002 34.0297 20.6086 33.501C21.224 32.9723 22.043 32.708 23.0656 32.708C23.4903 32.708 23.8456 32.7383 24.1316 32.799C24.4263 32.8597 24.708 32.955 24.9766 33.085V34.138C24.526 33.9127 23.98 33.8 23.3386 33.8C22.628 33.8 22.082 33.9603 21.7006 34.281C21.3193 34.593 21.1286 35.139 21.1286 35.919C21.1286 36.6557 21.2976 37.1973 21.6356 37.544C21.9736 37.882 22.5326 38.051 23.3126 38.051C23.928 38.051 24.487 37.934 24.9896 37.7V38.779C24.7036 38.8917 24.396 38.9783 24.0666 39.039C23.746 39.0997 23.3863 39.13 22.9876 39.13ZM26.1159 39V30.238H27.5329V33.436C27.8015 33.2193 28.1222 33.046 28.4949 32.916C28.8675 32.7773 29.2879 32.708 29.7559 32.708C30.5359 32.708 31.1122 32.8943 31.4849 33.267C31.8575 33.6397 32.0439 34.2203 32.0439 35.009V39H30.6399V35.074C30.6399 34.5973 30.5359 34.2637 30.3279 34.073C30.1285 33.8823 29.7775 33.787 29.2749 33.787C28.9629 33.787 28.6465 33.8563 28.3259 33.995C28.0052 34.125 27.7409 34.2983 27.5329 34.515V39H26.1159Z" fill="#001029"/>
</svg>
