<svg width="125" height="40" viewBox="0 0 125 40" fill="none" xmlns="http://www.w3.org/2000/svg">
<g clip-path="url(#clip0_102_8)">
<path d="M88.861 37.225C89.62 37.225 90.069 36.65 90.069 35.751C90.069 34.819 89.587 34.277 88.877 34.277C88.471 34.277 88.189 34.457 87.978 34.743H87.968V33.27H87.528V37.143H87.968V36.775H87.978C88.206 37.089 88.482 37.225 88.861 37.225ZM88.829 36.856C88.233 36.856 87.94 36.385 87.94 35.756C87.94 35.15 88.222 34.651 88.834 34.651C89.365 34.651 89.62 35.128 89.62 35.756C89.62 36.39 89.365 36.856 88.829 36.856ZM90.812 38.07C91.153 38.07 91.37 37.95 91.597 37.37L92.795 34.342H92.329L91.689 36.087C91.603 36.32 91.505 36.634 91.505 36.634H91.495C91.495 36.634 91.391 36.32 91.305 36.087L90.644 34.342H90.167L91.261 37.062L91.153 37.338C91.045 37.609 90.92 37.68 90.736 37.68C90.6332 37.6852 90.5307 37.6646 90.438 37.62H90.416V38.01C90.536 38.059 90.644 38.07 90.812 38.07ZM93.918 37.143H94.655V33.27H93.918V37.143ZM96.457 37.225C97.318 37.225 97.909 36.585 97.909 35.756C97.909 34.927 97.319 34.288 96.457 34.288C95.596 34.288 95.005 34.928 95.005 35.756C95.005 36.586 95.595 37.225 96.457 37.225ZM96.457 36.661C96.002 36.661 95.753 36.298 95.753 35.756C95.753 35.215 96.002 34.846 96.457 34.846C96.907 34.846 97.161 35.215 97.161 35.756C97.161 36.298 96.907 36.661 96.457 36.661ZM99.476 38.091C99.888 38.091 100.245 37.994 100.478 37.777C100.684 37.587 100.809 37.322 100.809 36.932V34.364H100.099V34.657H100.088C99.92 34.424 99.666 34.288 99.318 34.288C98.615 34.288 98.116 34.819 98.116 35.648C98.116 36.488 98.723 36.975 99.341 36.975C99.693 36.975 99.904 36.835 100.066 36.65H100.083V36.954C100.083 37.333 99.883 37.534 99.465 37.534C99.124 37.534 98.967 37.398 98.907 37.224H98.176C98.251 37.766 98.717 38.091 99.476 38.091ZM99.466 36.385C99.086 36.385 98.836 36.109 98.836 35.637C98.836 35.171 99.086 34.879 99.46 34.879C99.904 34.879 100.121 35.225 100.121 35.632C100.121 36.044 99.931 36.385 99.465 36.385H99.466ZM102.6 37.225C103.461 37.225 104.052 36.585 104.052 35.756C104.052 34.927 103.461 34.288 102.6 34.288C101.738 34.288 101.148 34.928 101.148 35.756C101.148 36.586 101.738 37.225 102.6 37.225ZM102.6 36.661C102.145 36.661 101.895 36.298 101.895 35.756C101.895 35.215 102.145 34.846 102.6 34.846C103.049 34.846 103.304 35.215 103.304 35.756C103.304 36.298 103.049 36.661 102.6 36.661ZM104.394 37.143H105.131V34.364H104.394V37.143ZM104.394 33.931H105.131V33.27H104.394V33.931ZM105.606 38.053H106.343V36.83H106.353C106.511 37.069 106.765 37.226 107.155 37.226C107.87 37.226 108.358 36.656 108.358 35.757C108.358 34.89 107.887 34.289 107.15 34.289C106.989 34.2864 106.83 34.3237 106.688 34.3975C106.545 34.4713 106.423 34.5794 106.332 34.712H106.316V34.365H105.606V38.055V38.053ZM106.998 36.613C106.559 36.613 106.326 36.282 106.326 35.778C106.326 35.28 106.511 34.884 106.971 34.884C107.426 34.884 107.61 35.252 107.61 35.778C107.61 36.304 107.372 36.613 106.998 36.613ZM109.828 37.225C110.521 37.225 110.998 36.889 110.998 36.331C110.998 35.681 110.483 35.551 110.017 35.453C109.622 35.372 109.254 35.35 109.254 35.112C109.254 34.912 109.443 34.802 109.73 34.802C110.045 34.802 110.234 34.912 110.267 35.209H110.933C110.879 34.651 110.473 34.289 109.741 34.289C109.107 34.289 108.609 34.575 108.609 35.177C108.609 35.783 109.096 35.919 109.595 36.017C109.974 36.092 110.326 36.119 110.326 36.385C110.326 36.58 110.142 36.705 109.817 36.705C109.487 36.705 109.259 36.564 109.21 36.244H108.528C108.571 36.834 109.021 37.225 109.828 37.225ZM113.796 37.143V34.364H113.059V35.968C113.059 36.336 112.847 36.596 112.501 36.596C112.187 36.596 112.04 36.417 112.04 36.092V34.364H111.309V36.217C111.309 36.824 111.656 37.219 112.273 37.219C112.663 37.219 112.88 37.073 113.07 36.819H113.086V37.143H113.796ZM114.272 37.143H115.009V35.53C115.009 35.161 115.209 34.923 115.507 34.923C115.778 34.923 115.935 35.086 115.935 35.4V37.144H116.672V35.53C116.672 35.161 116.862 34.923 117.171 34.923C117.442 34.923 117.599 35.086 117.599 35.4V37.144H118.336V35.275C118.336 34.668 118.005 34.289 117.42 34.289C117.068 34.289 116.775 34.473 116.586 34.777H116.575C116.508 34.6294 116.4 34.5046 116.263 34.4178C116.126 34.3311 115.967 34.2863 115.805 34.289C115.642 34.2849 115.482 34.3245 115.34 34.4037C115.198 34.4828 115.08 34.5987 114.998 34.739H114.982V34.365H114.272V37.145V37.143Z" fill="#0054AE"/>
<path d="M118.481 2.14894C118.481 0.965938 119.44 0.00593848 120.623 0.00593848H122.052C122.62 0.00593848 123.165 0.231718 123.567 0.633609C123.969 1.0355 124.195 1.58058 124.195 2.14894C124.195 2.7173 123.969 3.26238 123.567 3.66427C123.165 4.06616 122.62 4.29194 122.052 4.29194H120.623C120.342 4.29194 120.063 4.2365 119.803 4.12879C119.543 4.02108 119.307 3.86322 119.108 3.66421C118.909 3.4652 118.751 3.22895 118.644 2.96895C118.536 2.70896 118.481 2.43031 118.481 2.14894ZM58.49 14.2899C58.49 22.1779 52.096 28.5729 44.207 28.5729C36.319 28.5729 29.924 22.1779 29.924 14.2899C29.924 6.39994 36.319 0.00693848 44.207 0.00693848C52.096 0.00693848 58.49 6.39994 58.49 14.2899ZM27.138 14.2189C27.928 14.2189 28.574 14.8589 28.495 15.6449C28.2251 18.3348 27.1973 20.8927 25.5311 23.0216C23.865 25.1504 21.6289 26.7627 19.0827 27.6711C16.5366 28.5794 13.7849 28.7466 11.1475 28.153C8.51015 27.5595 6.09537 26.2297 4.18382 24.3181C2.27228 22.4066 0.942462 19.9918 0.348932 17.3544C-0.244598 14.7171 -0.0774716 11.9654 0.830888 9.41924C1.73925 6.87308 3.35154 4.63699 5.48038 2.97085C7.60923 1.3047 10.1672 0.276913 12.857 0.00693848C13.642 -0.0730615 14.283 0.574939 14.283 1.36294V12.7899C14.283 13.5799 14.923 14.2189 15.712 14.2189H27.138ZM78.487 31.4299C79.6235 31.4299 80.7134 31.8814 81.517 32.685C82.3206 33.4886 82.772 34.5785 82.772 35.7149C82.772 36.8514 82.3206 37.9413 81.517 38.7449C80.7134 39.5485 79.6235 39.9999 78.487 39.9999H71.346C70.2096 39.9999 69.1197 39.5485 68.3161 38.7449C67.5125 37.9413 67.061 36.8514 67.061 35.7149C67.061 34.5785 67.5125 33.4886 68.3161 32.685C69.1197 31.8814 70.2096 31.4299 71.346 31.4299H78.487ZM74.202 28.5729C82.091 28.5729 88.486 22.1779 88.486 14.2899C88.4894 11.8669 87.8736 9.48315 86.697 7.36494L89.057 5.00494C89.3289 4.73297 89.5445 4.41012 89.6915 4.05483C89.8386 3.69954 89.9142 3.31876 89.9142 2.93423C89.9141 2.5497 89.8382 2.16896 89.691 1.81374C89.5438 1.45852 89.328 1.13577 89.056 0.863938C88.7841 0.592102 88.4612 0.376496 88.1059 0.229429C87.7506 0.0823627 87.3698 0.00671637 86.9853 0.00680924C86.6008 0.0069021 86.22 0.0827323 85.8648 0.22997C85.5096 0.377208 85.1869 0.592971 84.915 0.864938L82.855 2.92494C80.3698 1.02684 77.3282 0.000906653 74.201 0.00593848C66.314 0.00693848 59.92 6.39994 59.92 14.2899C59.92 22.1779 66.314 28.5729 74.202 28.5729ZM118.481 14.2899C118.481 22.1779 112.086 28.5729 104.197 28.5729C96.309 28.5729 89.914 22.1779 89.914 14.2899C89.914 6.39994 96.309 0.00693848 104.197 0.00693848C112.086 0.00693848 118.481 6.40094 118.481 14.2899Z" fill="#0054AE"/>
</g>
<defs>
<clipPath id="clip0_102_8">
<rect width="125" height="40" fill="white"/>
</clipPath>
</defs>
</svg>
